# xmcd
#
# Track frame offsets: 
#        150
#        24372
#        50045
#        71607
#        102021
#        133450
#        150916
#        181457
#
# Disc length: 2696 seconds
#
# Revision: 3
# Processed by: cddbd v1.5.2PL0 Copyright (c) Steve Scherf et al.
# Submitted via: ExactAudioCopy v1.0b6
#
DISCID=670a8608
DTITLE=Blues Company - Limited Jubilee Edition [CD 5) - Encores
DYEAR=2017
DGENRE=Blues
TTITLE0=Let's Work Together [live 2016]
TTITLE1=Honky Tonk Woman [live 2016]
TTITLE2=Fool [live 2016]
TTITLE3=The Blues Is Alright [live 2016]
TTITLE4=Silent Night [live 2014]
TTITLE5=Smoking Gun [live 2014]
TTITLE6=Sugar Daddy [live 2014]
TTITLE7=A Little Bit Of That [live 2014]
EXTD=
EXTT0=
EXTT1=
EXTT2=
EXTT3=
EXTT4=
EXTT5=
EXTT6=
EXTT7=
PLAYORDER=
